<svg width="1318" height="267" viewBox="0 0 1318 267" fill="none" xmlns="http://www.w3.org/2000/svg">
<g clip-path="url(#clip0_817_292)">
<path d="M395.4 137.2C395.4 137.2 429.5 137.2 429.9 137.2C435.5 137.2 441.6 134.4 446.6 132.3C457.9 127.5 468.3 120.8 478.2 113.6C488.1 106.5 497.1 98.3001 508.3 93.2001C518.6 88.5001 529.8 85.8001 541.2 85.4001C561.7 84.7001 581.7 91.8001 599 102.3C606.9 107.1 613.9 112.9 621.3 118.2C627.3 122.6 633.6 126.7 640.2 130.2C646.6 133.6 653.8 137 661.1 137.2H685.6" stroke="black" stroke-width="2"/>
<path d="M429.7 137.2H663.3" stroke="black" stroke-width="2"/>
<path d="M424.3 137.2C424.3 137.2 445.8 137.2 472.3 126.5C496.1 117 521.1 111.2 546.8 111.3C572 111.4 597.3 116.3 620.7 125.7C629.6 129.3 638.6 133.6 647.9 135.9C655.1 137.7 663.2 137.6 670.6 137.5C674.2 137.5 677.9 137.3 681.5 137.1" stroke="black" stroke-width="2"/>
<path d="M394.4 137.6C394.4 137.6 428.5 137.6 428.9 137.6C434.5 137.6 440.6 140.4 445.6 142.5C456.9 147.3 467.3 154 477.2 161.2C487.1 168.3 496.1 176.5 507.3 181.6C517.6 186.3 528.8 189 540.2 189.4C560.7 190.1 580.7 183 598 172.5C605.9 167.7 612.9 161.9 620.3 156.6C626.3 152.2 632.6 148.1 639.2 144.6C645.6 141.2 652.8 137.8 660.1 137.6H684.6" stroke="black" stroke-width="2"/>
<path d="M423.4 137.6C423.4 137.6 444.9 137.6 471.4 148.3C495.2 157.8 520.2 163.6 545.9 163.5C571.1 163.4 596.4 158.5 619.8 149.1C628.7 145.5 637.7 141.2 647 138.9C654.2 137.1 662.3 137.2 669.7 137.3C673.3 137.3 677 137.5 680.6 137.7" stroke="black" stroke-width="2"/>
<path d="M717.7 137.6H824.7C832.2 137.6 840.4 133.3 845.9 128.5C853 122.3 855.5 113.4 858.8 105C862.6 95.1999 869 82.5999 879.7 78.9999C885.3 77.0999 891.2 78.8999 895.7 82.5999C903.8 89.2999 906.8 99.7999 908.3 109.8C909.5 117.7 910.8 126.6 917.6 131.7C925.9 137.9 937.3 138.6 947.2 137.6H996.7" stroke="black" stroke-width="2"/>
<path d="M956.8 137.6C936.5 137.8 889.6 137 889.6 137C882.1 137 873.9 141.3 868.4 146.1C861.3 152.3 858.8 161.2 855.5 169.6C851.7 179.4 845.3 192 834.6 195.6C829 197.5 823.1 195.7 818.6 192C810.5 185.3 807.5 174.8 806 164.8C804.8 156.9 803.5 148 796.7 142.9C788.4 136.7 778.3 137.6 767.1 137.6" stroke="black" stroke-width="2"/>
<path d="M11 137.4C64.8 138.1 120 140.1 173.1 129.7C173.9 129.5 174.7 129.4 175.5 129.2C186 127 197 123.9 204.1 115.9C212.2 106.7 213.2 92.7999 209.2 81.2999C207.2 75.6999 204.1 70.2999 199.5 66.4999C194.9 62.6999 188.6 60.6999 182.8 62.0999C176.2 63.5999 171.1 69.0999 167.4 74.7999C154.3 95.1999 153.3 122.8 165.1 144C170.5 153.8 178.9 162.5 189.6 166C202.1 170 216.3 166.1 226.4 157.7C236.5 149.3 242.9 137.2 246.3 124.5C250.7 107.8 250.2 89.8999 244.7 73.4999C239 56.2999 227.5 40.4999 211.3 32.3999C190.7 21.7999 165 25.1999 145 36.6999C112.3 55.4999 82.2 96.6999 89.5 136.2C95.4 168 125.9 181.1 154.9 184.9C173.9 187.4 193.6 187.1 211.5 180.4C229.2 173.7 244.3 160.7 255 145.1C265.7 129.6 272.5 111.3 274.4 92.5999C275.4 83.4999 275.1 73.9999 271.4 65.6999C269.2 60.7999 265.5 56.1999 260.3 54.9999C252.1 52.9999 244.6 59.8999 239.7 66.6999C214.1 101.9 211.9 151.1 229.1 191C232.9 199.7 238.8 209.1 248.2 210.5C257.6 211.9 266.1 204.5 271.4 196.6C287.7 172.3 287.7 140.4 281.7 111.7C279.3 100.2 275.8 88.3999 267.5 80.1999C258.5 71.2999 244.9 68.0999 232.4 69.8999C219.9 71.5999 208.4 77.8999 198.5 85.6999C194.5 88.8999 190.6 92.3999 188 96.7999C183.1 105.2 185 113.9 192.7 119.7C206.1 129.7 226.5 132.8 242.6 135.2C260.1 137.9 277.9 137.1 295.5 137.2C317.7 137.3 339.9 137.4 362.2 137.7" stroke="black" stroke-width="2"/>
<path d="M1244.21 137.707C1244.6 137.317 1244.6 136.683 1244.21 136.293L1237.84 129.929C1237.45 129.538 1236.82 129.538 1236.43 129.929C1236.04 130.319 1236.04 130.953 1236.43 131.343L1242.09 137L1236.43 142.657C1236.04 143.047 1236.04 143.681 1236.43 144.071C1236.82 144.462 1237.45 144.462 1237.84 144.071L1244.21 137.707ZM1032.5 138H1243.5V136H1032.5V138Z" fill="black"/>
<path d="M377.289 127.416C378.07 126.634 379.337 126.634 380.119 127.416L388.284 135.586C389.064 136.367 389.064 137.633 388.284 138.414L380.119 146.584C379.337 147.366 378.07 147.366 377.289 146.584L369.124 138.414C368.344 137.633 368.344 136.367 369.124 135.586L377.289 127.416Z" fill="url(#paint0_linear_817_292)"/>
<path d="M698.969 127.416C699.75 126.634 701.017 126.634 701.798 127.416L709.963 135.586C710.744 136.367 710.744 137.633 709.963 138.414L701.798 146.584C701.017 147.366 699.75 147.366 698.969 146.584L690.804 138.414C690.023 137.633 690.023 136.367 690.804 135.586L698.969 127.416Z" fill="url(#paint1_linear_817_292)"/>
<path d="M1012.56 127.416C1013.34 126.634 1014.61 126.634 1015.39 127.416L1023.56 135.586C1024.34 136.367 1024.34 137.633 1023.56 138.414L1015.39 146.584C1014.61 147.366 1013.34 147.366 1012.56 146.584L1004.4 138.414C1003.62 137.633 1003.62 136.367 1004.4 135.586L1012.56 127.416Z" fill="url(#paint2_linear_817_292)"/>
<path d="M1260.08 127.416C1260.86 126.634 1262.13 126.634 1262.91 127.416L1271.07 135.586C1271.85 136.367 1271.85 137.633 1271.07 138.414L1262.91 146.584C1262.13 147.366 1260.86 147.366 1260.08 146.584L1251.91 138.414C1251.13 137.633 1251.13 136.367 1251.91 135.586L1260.08 127.416Z" fill="url(#paint3_linear_817_292)"/>
<path d="M973.134 97.928H975.774C978.558 97.928 980.886 96.2 980.886 92.504C980.886 88.808 978.582 87.056 975.798 87.056H973.134V97.928ZM975.894 101H969.822V83.984H975.918C980.766 83.984 984.318 87.128 984.318 92.504C984.318 97.88 980.742 101 975.894 101Z" fill="#111111"/>
<path d="M989.348 93.752H994.628C994.58 92.576 993.812 91.424 991.988 91.424C990.332 91.424 989.42 92.672 989.348 93.752ZM994.94 96.824L997.604 97.616C997.004 99.656 995.132 101.36 992.228 101.36C988.988 101.36 986.132 99.032 986.132 95.048C986.132 91.28 988.916 88.832 991.94 88.832C995.588 88.832 997.772 91.16 997.772 94.952C997.772 95.408 997.724 95.888 997.724 95.936H989.276C989.348 97.496 990.668 98.624 992.252 98.624C993.74 98.624 994.556 97.88 994.94 96.824Z" fill="#111111"/>
<path d="M1011.19 89.192L1006.6 101H1003.41L998.587 89.192H1002.09L1005.02 97.112L1007.83 89.192H1011.19Z" fill="#111111"/>
<path d="M1015.11 93.752H1020.39C1020.34 92.576 1019.57 91.424 1017.75 91.424C1016.09 91.424 1015.18 92.672 1015.11 93.752ZM1020.7 96.824L1023.36 97.616C1022.76 99.656 1020.89 101.36 1017.99 101.36C1014.75 101.36 1011.89 99.032 1011.89 95.048C1011.89 91.28 1014.67 88.832 1017.7 88.832C1021.35 88.832 1023.53 91.16 1023.53 94.952C1023.53 95.408 1023.48 95.888 1023.48 95.936H1015.03C1015.11 97.496 1016.43 98.624 1018.01 98.624C1019.5 98.624 1020.31 97.88 1020.7 96.824Z" fill="#111111"/>
<path d="M1029.24 101H1026.04V83.624H1029.24V101Z" fill="#111111"/>
<path d="M1037.96 98.456C1039.52 98.456 1040.96 97.328 1040.96 95.096C1040.96 92.864 1039.52 91.736 1037.96 91.736C1036.4 91.736 1034.96 92.864 1034.96 95.096C1034.96 97.304 1036.4 98.456 1037.96 98.456ZM1037.96 88.832C1041.48 88.832 1044.15 91.448 1044.15 95.096C1044.15 98.72 1041.48 101.36 1037.96 101.36C1034.43 101.36 1031.76 98.72 1031.76 95.096C1031.76 91.448 1034.43 88.832 1037.96 88.832Z" fill="#111111"/>
<path d="M1049.86 105.56H1046.67V89.192H1049.76V90.632C1050.29 89.72 1051.61 88.928 1053.39 88.928C1056.84 88.928 1058.84 91.568 1058.84 95.072C1058.84 98.648 1056.6 101.288 1053.27 101.288C1051.64 101.288 1050.44 100.64 1049.86 99.848V105.56ZM1055.69 95.096C1055.69 93.008 1054.4 91.784 1052.76 91.784C1051.13 91.784 1049.81 93.008 1049.81 95.096C1049.81 97.184 1051.13 98.432 1052.76 98.432C1054.4 98.432 1055.69 97.208 1055.69 95.096Z" fill="#111111"/>
<path d="M1226.21 186.928H1228.85C1231.64 186.928 1233.96 185.2 1233.96 181.504C1233.96 177.808 1231.66 176.056 1228.88 176.056H1226.21V186.928ZM1228.97 190H1222.9V172.984H1229C1233.84 172.984 1237.4 176.128 1237.4 181.504C1237.4 186.88 1233.82 190 1228.97 190Z" fill="#111111"/>
<path d="M1242.42 182.752H1247.7C1247.66 181.576 1246.89 180.424 1245.06 180.424C1243.41 180.424 1242.5 181.672 1242.42 182.752ZM1248.02 185.824L1250.68 186.616C1250.08 188.656 1248.21 190.36 1245.3 190.36C1242.06 190.36 1239.21 188.032 1239.21 184.048C1239.21 180.28 1241.99 177.832 1245.02 177.832C1248.66 177.832 1250.85 180.16 1250.85 183.952C1250.85 184.408 1250.8 184.888 1250.8 184.936H1242.35C1242.42 186.496 1243.74 187.624 1245.33 187.624C1246.82 187.624 1247.63 186.88 1248.02 185.824Z" fill="#111111"/>
<path d="M1256.55 190H1253.36V172.624H1256.55V190Z" fill="#111111"/>
<path d="M1263.16 190H1259.97V178.192H1263.16V190ZM1259.59 174.328C1259.59 173.224 1260.48 172.336 1261.56 172.336C1262.66 172.336 1263.52 173.224 1263.52 174.328C1263.52 175.384 1262.66 176.272 1261.56 176.272C1260.48 176.272 1259.59 175.384 1259.59 174.328Z" fill="#111111"/>
<path d="M1277.72 178.192L1273.13 190H1269.94L1265.12 178.192H1268.62L1271.55 186.112L1274.36 178.192H1277.72Z" fill="#111111"/>
<path d="M1281.64 182.752H1286.92C1286.87 181.576 1286.1 180.424 1284.28 180.424C1282.62 180.424 1281.71 181.672 1281.64 182.752ZM1287.23 185.824L1289.89 186.616C1289.29 188.656 1287.42 190.36 1284.52 190.36C1281.28 190.36 1278.42 188.032 1278.42 184.048C1278.42 180.28 1281.2 177.832 1284.23 177.832C1287.88 177.832 1290.06 180.16 1290.06 183.952C1290.06 184.408 1290.01 184.888 1290.01 184.936H1281.56C1281.64 186.496 1282.96 187.624 1284.54 187.624C1286.03 187.624 1286.84 186.88 1287.23 185.824Z" fill="#111111"/>
<path d="M1299.77 178.144V181.36C1299.41 181.288 1299.1 181.264 1298.81 181.264C1297.18 181.264 1295.77 182.056 1295.77 184.6V190H1292.57V178.192H1295.67V179.944C1296.39 178.384 1298.02 178.096 1299.03 178.096C1299.29 178.096 1299.53 178.12 1299.77 178.144Z" fill="#111111"/>
<path d="M668.665 186.928H671.305C674.089 186.928 676.417 185.2 676.417 181.504C676.417 177.808 674.113 176.056 671.329 176.056H668.665V186.928ZM671.425 190H665.353V172.984H671.449C676.297 172.984 679.849 176.128 679.849 181.504C679.849 186.88 676.273 190 671.425 190Z" fill="#111111"/>
<path d="M684.878 182.752H690.158C690.11 181.576 689.342 180.424 687.518 180.424C685.862 180.424 684.95 181.672 684.878 182.752ZM690.47 185.824L693.134 186.616C692.534 188.656 690.662 190.36 687.758 190.36C684.518 190.36 681.662 188.032 681.662 184.048C681.662 180.28 684.446 177.832 687.47 177.832C691.118 177.832 693.302 180.16 693.302 183.952C693.302 184.408 693.254 184.888 693.254 184.936H684.806C684.878 186.496 686.198 187.624 687.782 187.624C689.27 187.624 690.086 186.88 690.47 185.824Z" fill="#111111"/>
<path d="M704.36 180.928H699.632V190H696.416V180.928H694.448V178.192H696.416V176.848C696.416 174.184 698.096 172.456 700.712 172.456C701.384 172.456 702.032 172.576 702.296 172.696V175.384C702.128 175.336 701.816 175.264 701.288 175.264C700.592 175.264 699.632 175.576 699.632 176.896V178.192H707.528V190H704.36V180.928ZM703.976 174.304C703.976 173.2 704.864 172.312 705.944 172.312C707.024 172.312 707.912 173.2 707.912 174.304C707.912 175.384 707.024 176.248 705.944 176.248C704.864 176.248 703.976 175.384 703.976 174.304Z" fill="#111111"/>
<path d="M714.148 183.208V190H710.956V178.192H714.052V179.656C714.772 178.432 716.188 177.88 717.46 177.88C720.388 177.88 721.732 179.968 721.732 182.56V190H718.54V183.112C718.54 181.792 717.892 180.76 716.356 180.76C714.964 180.76 714.148 181.84 714.148 183.208Z" fill="#111111"/>
<path d="M727.3 182.752H732.58C732.532 181.576 731.764 180.424 729.94 180.424C728.284 180.424 727.372 181.672 727.3 182.752ZM732.892 185.824L735.556 186.616C734.956 188.656 733.084 190.36 730.18 190.36C726.94 190.36 724.084 188.032 724.084 184.048C724.084 180.28 726.868 177.832 729.892 177.832C733.54 177.832 735.724 180.16 735.724 183.952C735.724 184.408 735.676 184.888 735.676 184.936H727.228C727.3 186.496 728.62 187.624 730.204 187.624C731.692 187.624 732.508 186.88 732.892 185.824Z" fill="#111111"/>
<path d="M336.168 97.9279H338.808C341.592 97.9279 343.92 96.1999 343.92 92.5039C343.92 88.8079 341.616 87.0559 338.832 87.0559H336.168V97.9279ZM338.928 101H332.856V83.9839H338.952C343.8 83.9839 347.352 87.1279 347.352 92.5039C347.352 97.8799 343.776 101 338.928 101Z" fill="#111111"/>
<path d="M353.175 101H349.983V89.1919H353.175V101ZM349.599 85.3279C349.599 84.2239 350.487 83.3359 351.567 83.3359C352.671 83.3359 353.535 84.2239 353.535 85.3279C353.535 86.3839 352.671 87.2719 351.567 87.2719C350.487 87.2719 349.599 86.3839 349.599 85.3279Z" fill="#111111"/>
<path d="M355.585 97.7119L358.321 97.1119C358.393 98.0479 359.089 98.9119 360.481 98.9119C361.537 98.9119 362.041 98.3599 362.041 97.7359C362.041 97.2079 361.681 96.7759 360.769 96.5839L359.209 96.2239C356.929 95.7199 355.897 94.3519 355.897 92.6959C355.897 90.5839 357.769 88.8319 360.313 88.8319C363.673 88.8319 364.801 90.9679 364.945 92.2399L362.281 92.8399C362.185 92.1439 361.681 91.2559 360.337 91.2559C359.497 91.2559 358.825 91.7599 358.825 92.4319C358.825 93.0079 359.257 93.3679 359.905 93.4879L361.585 93.8479C363.913 94.3279 365.089 95.7439 365.089 97.4719C365.089 99.3919 363.601 101.36 360.505 101.36C356.953 101.36 355.729 99.0559 355.585 97.7119Z" fill="#111111"/>
<path d="M372.912 91.7839C371.28 91.7839 369.912 92.9599 369.912 95.0959C369.912 97.2319 371.304 98.4319 372.936 98.4319C374.568 98.4319 375.384 97.3519 375.648 96.4399L378.456 97.3759C377.928 99.3439 376.08 101.36 372.936 101.36C369.456 101.36 366.72 98.7199 366.72 95.0959C366.72 91.4479 369.408 88.8319 372.84 88.8319C376.056 88.8319 377.88 90.8239 378.384 92.8159L375.528 93.7759C375.24 92.7919 374.496 91.7839 372.912 91.7839Z" fill="#111111"/>
<path d="M385.99 98.4559C387.55 98.4559 388.99 97.3279 388.99 95.0959C388.99 92.8639 387.55 91.7359 385.99 91.7359C384.43 91.7359 382.99 92.8639 382.99 95.0959C382.99 97.3039 384.43 98.4559 385.99 98.4559ZM385.99 88.8319C389.518 88.8319 392.182 91.4479 392.182 95.0959C392.182 98.7199 389.518 101.36 385.99 101.36C382.462 101.36 379.798 98.7199 379.798 95.0959C379.798 91.4479 382.462 88.8319 385.99 88.8319Z" fill="#111111"/>
<path d="M405.486 89.1919L400.902 101H397.71L392.886 89.1919H396.39L399.318 97.1119L402.126 89.1919H405.486Z" fill="#111111"/>
<path d="M409.405 93.7519H414.685C414.637 92.5759 413.869 91.4239 412.045 91.4239C410.389 91.4239 409.477 92.6719 409.405 93.7519ZM414.997 96.8239L417.661 97.6159C417.061 99.6559 415.189 101.36 412.285 101.36C409.045 101.36 406.189 99.0319 406.189 95.0479C406.189 91.2799 408.973 88.8319 411.997 88.8319C415.645 88.8319 417.829 91.1599 417.829 94.9519C417.829 95.4079 417.781 95.8879 417.781 95.9359H409.333C409.405 97.4959 410.725 98.6239 412.309 98.6239C413.797 98.6239 414.613 97.8799 414.997 96.8239Z" fill="#111111"/>
<path d="M427.543 89.1439V92.3599C427.183 92.2879 426.871 92.2639 426.583 92.2639C424.951 92.2639 423.535 93.0559 423.535 95.5999V101H420.343V89.1919H423.439V90.9439C424.159 89.3839 425.791 89.0959 426.799 89.0959C427.063 89.0959 427.303 89.1199 427.543 89.1439Z" fill="#111111"/>
</g>
<defs>
<linearGradient id="paint0_linear_817_292" x1="389.696" y1="125.368" x2="366.039" y2="146.091" gradientUnits="userSpaceOnUse">
<stop stop-color="#FFD39E"/>
<stop offset="0.515625" stop-color="#F59EFF"/>
<stop offset="1" stop-color="#A7C8FA"/>
</linearGradient>
<linearGradient id="paint1_linear_817_292" x1="711.376" y1="125.368" x2="687.719" y2="146.091" gradientUnits="userSpaceOnUse">
<stop stop-color="#FFD39E"/>
<stop offset="0.515625" stop-color="#F59EFF"/>
<stop offset="1" stop-color="#A7C8FA"/>
</linearGradient>
<linearGradient id="paint2_linear_817_292" x1="1024.97" y1="125.368" x2="1001.31" y2="146.091" gradientUnits="userSpaceOnUse">
<stop stop-color="#FFD39E"/>
<stop offset="0.515625" stop-color="#F59EFF"/>
<stop offset="1" stop-color="#A7C8FA"/>
</linearGradient>
<linearGradient id="paint3_linear_817_292" x1="1272.48" y1="125.368" x2="1248.83" y2="146.091" gradientUnits="userSpaceOnUse">
<stop stop-color="#FFD39E"/>
<stop offset="0.515625" stop-color="#F59EFF"/>
<stop offset="1" stop-color="#A7C8FA"/>
</linearGradient>
<clipPath id="clip0_817_292">
<rect width="1318" height="267" fill="white"/>
</clipPath>
</defs>
</svg>
